<?xml version="1.0" encoding="utf-8"?>
<!-- Generator: Adobe Illustrator 26.0.3, SVG Export Plug-In . SVG Version: 6.00 Build 0)  -->
<svg version="1.0" id="katman_1" xmlns="http://www.w3.org/2000/svg" xmlns:xlink="http://www.w3.org/1999/xlink" x="0px" y="0px"
	 viewBox="0 0 600 450" style="enable-background:new 0 0 600 450;" xml:space="preserve">
<style type="text/css">
	.st0{fill:#474647;}
	.st1{fill:#52C2E6;}
	.st2{fill:#495EA8;}
	.st3{fill:#0A3B5C;}
</style>
<path class="st0" d="M233.9,250.6c0,0-6.3,6.5-20.1,6.5c-17.9,0-28.7-12.1-28.7-28.8s10.6-28.8,26.6-28.8s24.9,11.3,24.9,27.2
	c0,1.2-0.1,3.4-0.1,3.4h-38.9c0.8,11.1,7.3,16.5,17,16.5c5.3,0.1,10.5-1.6,14.7-4.8L233.9,250.6z M198.2,221.7h25.7
	c-0.9-8-5.2-12.2-12.4-12.2S199.6,213.5,198.2,221.7L198.2,221.7z"/>
<path class="st0" d="M246.7,200.8h8.4l1.6,7.8h0.8c4-6,9.1-9.1,18.1-9.1s15.6,3.6,19.4,9.9h0.7c3.6-6,9-9.9,18.8-9.9
	c14.2,0,22.4,9.9,22.4,24.6v31.4H324v-30.2c0-8.3-4.3-14.9-12.8-14.9s-12.6,6.4-13,12.4v32.7h-12.8V224c0-7.7-4.6-13.6-12.9-13.6
	c-8.7,0-12.6,6.6-13,12.4v32.7h-12.8V200.8z"/>
<path class="st0" d="M362.6,249.2v26.7h-12.8v-75.1h8.5l1.8,7.8h0.8c0,0,5-9.1,19.2-9.1s25.4,11.2,25.4,28.7c0,17.1-11,28.7-25,28.7
	c-13.6,0-17.3-7.7-17.3-7.7H362.6z M377.4,246.3c8.9,0,15.2-7.4,15.2-18.1s-6.4-18.2-15.2-18.2c-8.6,0-15.4,6.9-15.4,18.1
	S368.8,246.3,377.4,246.3L377.4,246.3z"/>
<path class="st0" d="M416.1,176.7h12.8v78.9h-12.8V176.7z"/>
<path class="st0" d="M440.8,183c-0.1-4.4,3.3-8,7.7-8.1c4.4-0.1,8,3.3,8.1,7.7s-3.3,8-7.7,8.1c-0.1,0-0.2,0-0.3,0
	c-4.2,0.1-7.7-3.3-7.8-7.5C440.8,183.2,440.8,183.1,440.8,183z M442.3,200.8H455v54.8h-12.8V200.8z"/>
<path class="st0" d="M467.8,200.8v-4.7c0-12.6,7.2-20.3,19.8-20.3c4.3-0.1,8.5,0.8,12.4,2.6l-4,9.6c-2.2-1-4.6-1.4-7-1.4
	c-5.1,0-8.3,3.4-8.3,8.9v5.3h15.3v10h-15.3v44.7h-12.8V200.8z"/>
<path class="st0" d="M504.3,183c-0.1-4.4,3.3-8,7.7-8.1c4.4-0.1,8,3.3,8.1,7.7s-3.3,8-7.7,8.1c-0.1,0-0.2,0-0.3,0
	c-4.2,0.1-7.7-3.3-7.8-7.5C504.3,183.2,504.3,183.1,504.3,183z M505.7,200.8h12.8v54.8h-12.8V200.8z"/>
<path class="st1" d="M86,205.7c-11.8,0-21.4,9.6-21.4,21.4l0,0c0,11.8,9.6,21.4,21.4,21.4h4.4v-42.9H86z"/>
<path class="st2" d="M137.7,205.7h-4.4v42.9h4.4c11.8,0,21.4-9.6,21.4-21.4l0,0C159.1,215.3,149.6,205.7,137.7,205.7z"/>
<path class="st1" d="M133.3,201.3c0-11.8-9.6-21.4-21.4-21.4l0,0c-11.8,0-21.4,9.6-21.4,21.4v4.4h42.9V201.3z"/>
<path class="st2" d="M91.1,258.1c2.4,9.5,10.9,16.2,20.8,16.3l0,0c11.8,0,21.4-9.6,21.4-21.4v-4.4h-32.6L91.1,258.1z"/>
<path class="st3" d="M90.5,205.7V253c0,1.7,0.2,3.5,0.7,5.1l9.6-9.6h32.6v-42.9H90.5z"/>
<path class="st0" d="M530.2,176.6h-1.4v3.9h-1v-3.9h-1.4v-0.9h3.7L530.2,176.6z M531,180.5v-4.7h0.7l1.6,2.1l1.7-2.1h0.7v4.7h-1
	v-2.9l-1.2,1.5h-0.4l-1.2-1.5v2.9H531z"/>
</svg>
